<svg xmlns="http://www.w3.org/2000/svg" xmlns:xlink="http://www.w3.org/1999/xlink" width="150px" height="33px" viewBox="0 0 150 33" version="1.1">
    <defs>
        <linearGradient x1="-0.18041958%" y1="50%" x2="100%" y2="50%" id="linearGradient-1">
            <stop stop-color="#00B4E6" offset="0%"/>
            <stop stop-color="#088CCB" offset="100%"/>
        </linearGradient>
    </defs>
    <g id="Page-1" stroke="none" stroke-width="1" fill="none" fill-rule="evenodd">
        <g id="mir-logo" transform="translate(98.000000, 10.000000)">
            <path d="M41.4545455,0 L33,0 C33.4545455,3.1 36.1818182,6 39.1818182,6 L45.9090909,6 C46,5.7 46,5.3 46,5 C46,2.2 44,0 41.4545455,0 Z" id="path10" fill="url(#linearGradient-1)"/>
            <path d="M33,6 L33,13 L37.4318182,13 L37.4318182,9.26666667 L41.3712121,9.26666667 C43.5378788,9.26666667 45.4090909,7.86666667 46,6 L33,6 Z" id="path12" fill="#4DB45F"/>
            <path d="M17,0 L17,13 L20.7142857,13 C20.7142857,13 21.6428571,13 22.1071429,12.0714286 C24.6142857,7.05714286 25.3571429,5.57142857 25.3571429,5.57142857 L25.8214286,5.57142857 L25.8214286,13 L30,13 L30,0 L26.2857143,0 C26.2857143,0 25.3571429,0.0928571429 24.8928571,0.928571429 C22.7571429,5.2 21.6428571,7.42857143 21.6428571,7.42857143 L21.1785714,7.42857143 L21.1785714,0 L17,0 Z" id="path14" fill="#4DB45F"/>
            <path d="M0,13 L0,0 L4.23529412,0 C4.23529412,0 5.45882353,0 6.11764706,1.85714286 C7.81176471,6.77857143 8,7.42857143 8,7.42857143 C8,7.42857143 8.37647059,6.22142857 9.88235294,1.85714286 C10.5411765,0 11.7647059,0 11.7647059,0 L16,0 L16,13 L11.7647059,13 L11.7647059,6.03571429 L11.2941176,6.03571429 L8.94117647,13 L7.05882353,13 L4.70588235,6.03571429 L4.23529412,6.03571429 L4.23529412,13 L0,13 Z" id="path16" fill="#4DB45F"/>
        </g>
        <g id="visa-logo" transform="translate(3.000000, 10.000000)" fill="#1A1F71">
            <path d="M22.238525,4.47572966 C22.214015,6.42588836 23.962395,7.51417512 25.2793775,8.16122939 C26.6325875,8.82519161 27.0870975,9.25092514 27.0819375,9.84454595 C27.0716175,10.7532399 26.0024225,11.1541534 25.0018125,11.1697608 C23.2560125,11.1970736 22.241105,10.694604 21.4341025,10.3145003 L20.805335,13.2813037 C21.6149175,13.657614 23.114005,13.9856933 24.66867,14 C28.31765,14 30.70501,12.1839127 30.7180175,9.36808857 C30.7322075,5.79454982 25.815265,5.59664009 25.848805,3.99927228 C25.860415,3.51501123 26.318795,2.9981265 27.3233825,2.86665634 C27.8204625,2.80032515 29.1930225,2.74949292 30.7489775,3.47198266 L31.359685,0.601532864 C30.5230125,0.294263374 29.4473675,0 28.108455,0 C24.67383,0 22.2579825,1.84079895 22.238525,4.47572966 M37.228325,0.247332972 C36.56204,0.247332972 36.0003525,0.6392506 35.7498775,1.24067508 L30.5372025,13.7890842 L34.1836025,13.7890842 L34.9092275,11.7672834 L39.36521,11.7672834 L39.78618,13.7890842 L43,13.7890842 L40.1954325,0.247332972 L37.228325,0.247332972 Z M37.738305,3.90551986 L38.7906225,8.99047767 L35.908655,8.99047767 L37.738305,3.90551986 Z M17.81748,0.247332972 L14.9432525,13.7890842 L18.4178675,13.7890842 L21.290805,0.247332972 L17.81748,0.247332972 Z M12.6771525,0.247332972 L9.0604225,9.46433382 L7.597455,1.62728188 C7.4257775,0.752512193 6.7478825,0.247332972 5.99506,0.247332972 L0.0826675,0.247332972 L0,0.640551212 C1.2137825,0.906092746 2.5927925,1.3344275 3.428175,1.79267632 C3.939445,2.07252458 4.08543,2.31725633 4.2532375,2.98251916 L7.0241575,13.7890842 L10.696465,13.7890842 L16.3261325,0.247332972 L12.6771525,0.247332972 Z" id="Shape"/>
        </g>
        <g id="mastercard-logo" transform="translate(60.000000, 8.000000)" fill-rule="nonzero">
            <path d="M28.985059,15.1928713 L28.985059,14.1928713 L28.8651204,14.1928713 L28.7263754,14.8791213 L28.588398,14.1928713 L28.4680757,14.1928713 L28.4680757,15.1928713 L28.55328,15.1928713 L28.55328,14.439538 L28.6830056,15.089538 L28.7712804,15.089538 L28.901006,14.4378713 L28.901006,15.1928713 L28.9854428,15.1928713 L28.985059,15.1928713 Z M28.2241685,15.1928713 L28.2241685,14.3641213 L28.3776899,14.3641213 L28.3776899,14.1953713 L27.9854428,14.1953713 L27.9854428,14.3641213 L28.1389642,14.3641213 L28.1389642,15.1928713 L28.2234009,15.1928713 L28.2241685,15.1928713 Z" id="Shape" fill="#F79410"/>
            <polygon id="Path" fill="#FF5F00" points="18.4345408 16.0344828 10.5872709 16.0344828 10.5872709 1.93185665 18.4346859 1.93185665"/>
            <path d="M11.0847802,8.98345988 C11.0847802,6.12274508 12.4242395,3.57440635 14.5101804,1.93214683 C12.9311953,0.687208651 10.9784116,0.0115380459 8.9677903,0.0144991196 C4.01489578,0.0144991196 0,4.02998501 0,8.98345988 C0,13.9369348 4.01489578,17.9524209 8.9677903,17.9524209 C10.9784613,17.9554144 12.9313013,17.279742 14.5101804,16.0347729 C12.4245297,14.3928036 11.0847802,11.8443198 11.0847802,8.98345988" id="Path" fill="#EB001B"/>
            <path d="M29.0213764,8.98345988 C29.0213764,13.9369348 25.0064806,17.9524205 20.0535861,17.9524205 C18.0427026,17.955362 16.0896498,17.2797044 14.5104706,16.0347729 C16.5968467,14.3925134 17.936306,11.8443198 17.936306,8.98345988 C17.936306,6.12259999 16.5968467,3.57440635 14.5104706,1.93214683 C16.0896107,0.687246263 18.0426072,0.0115904591 20.053441,0.0144994599 C25.0063355,0.0144994599 29.0213764,4.02998501 29.0213764,8.98345988" id="Path" fill="#F79E1B"/>
        </g>
    </g>
</svg>